<?xml version="1.0" encoding="UTF-8" standalone="no"?>
<!-- Created with Inkscape (http://www.inkscape.org/) -->

<svg
   xmlns:dc="http://purl.org/dc/elements/1.1/"
   xmlns:cc="http://creativecommons.org/ns#"
   xmlns:rdf="http://www.w3.org/1999/02/22-rdf-syntax-ns#"
   xmlns:svg="http://www.w3.org/2000/svg"
   xmlns="http://www.w3.org/2000/svg"
   xmlns:sodipodi="http://sodipodi.sourceforge.net/DTD/sodipodi-0.dtd"
   xmlns:inkscape="http://www.inkscape.org/namespaces/inkscape"
   width="502.8215"
   height="380.41663"
   viewBox="0 0 133.03819 100.6519"
   version="1.1"
   id="svg8"
   inkscape:version="0.92.2 5c3e80d, 2017-08-06"
   sodipodi:docname="archmerge-compact.svg"
   inkscape:export-filename="/home/erik/Insync/ArchMerge/Logo/archmerge-compact-100x76.png"
   inkscape:export-xdpi="19.092262"
   inkscape:export-ydpi="19.092262">
  <defs
     id="defs2" />
  <sodipodi:namedview
     id="base"
     pagecolor="#c7c7c7"
     bordercolor="#666666"
     borderopacity="1.0"
     inkscape:pageopacity="0"
     inkscape:pageshadow="2"
     inkscape:zoom="0.90509668"
     inkscape:cx="-111.79548"
     inkscape:cy="-9.7182141"
     inkscape:document-units="px"
     inkscape:current-layer="layer1"
     showgrid="false"
     units="px"
     inkscape:showpageshadow="false"
     inkscape:snap-global="false"
     showborder="true"
     inkscape:window-width="1920"
     inkscape:window-height="1020"
     inkscape:window-x="0"
     inkscape:window-y="30"
     inkscape:window-maximized="1"
     fit-margin-top="0"
     fit-margin-left="0"
     fit-margin-right="0"
     fit-margin-bottom="0"
     borderlayer="true" />
  <metadata
     id="metadata5">
    <rdf:RDF>
      <cc:Work
         rdf:about="">
        <dc:format>image/svg+xml</dc:format>
        <dc:type
           rdf:resource="http://purl.org/dc/dcmitype/StillImage" />
        <dc:title></dc:title>
        <cc:license
           rdf:resource="http://creativecommons.org/licenses/by-sa/4.0/" />
      </cc:Work>
      <cc:License
         rdf:about="http://creativecommons.org/licenses/by-sa/4.0/">
        <cc:permits
           rdf:resource="http://creativecommons.org/ns#Reproduction" />
        <cc:permits
           rdf:resource="http://creativecommons.org/ns#Distribution" />
        <cc:requires
           rdf:resource="http://creativecommons.org/ns#Notice" />
        <cc:requires
           rdf:resource="http://creativecommons.org/ns#Attribution" />
        <cc:permits
           rdf:resource="http://creativecommons.org/ns#DerivativeWorks" />
        <cc:requires
           rdf:resource="http://creativecommons.org/ns#ShareAlike" />
      </cc:License>
    </rdf:RDF>
  </metadata>
  <g
     inkscape:label="Livello 1"
     inkscape:groupmode="layer"
     id="layer1"
     transform="translate(-284.41925,11.669571)">
    <g
       id="g5965"
       transform="translate(1.1288138,-1.0353105)" />
    <g
       transform="matrix(1,0,0,0.99280564,1.1288114,0.08096619)"
       id="g5974"
       style="stroke:none" />
    <path
       style="opacity:0.622;fill:#ffffff;fill-opacity:1;stroke:#223745;stroke-width:0.6068244;stroke-miterlimit:4;stroke-dasharray:none;stroke-opacity:1"
       d="m 333.43977,-11.362189 c 0.0189,0 0.037,0.01 0.0588,0.0259 0.1386,0.11313 0.81341,1.6648101 2.33817,5.3775501 2.53902,6.18239 4.06606,9.72121 9.24363,21.4222699 1.6535,3.93362 3.9924,8.97851 5.31969,11.54912 0.53185,1.02966 2.16195,4.32343 2.76767,5.59278 1.07171,2.24579 2.97049,6.06925 4.94468,9.98504 1.46999,-0.72354 3.8337,-1.26647 8.06649,-1.2563 -0.41288,0.94692 -2.10488,5.11073 -3.00518,6.73997 -0.7523,-0.01 -1.47682,0.0738 -2.16088,0.2252 0.69733,1.35985 1.36489,2.65373 1.93805,3.74955 0.11068,0.21159 0.18535,0.35175 0.28919,0.54992 1.49715,-8.82222 8.42075,-10.98126 14.66997,-10.87733 7.46897,0.0336 11.18364,4.34625 11.25376,4.37904 l -4.45921,5.16375 c 0,0 -2.35814,-2.63916 -6.44467,-2.63829 -4.72005,0.20689 -8.23578,2.76772 -8.18029,7.49574 0.0533,4.72753 3.81736,8.11632 8.14806,8.075 4.32937,-0.0403 6.56126,-3.21756 6.56126,-3.21756 0,0 3.57252,3.54016 4.52655,4.36725 -0.19088,0.12559 -3.37197,5.20738 -11.36611,5.12435 -1.73681,-0.0182 -3.47254,-0.25339 -5.11677,-0.72824 0.42386,0.74559 0.8472,1.4816 1.27006,2.2201 -0.29676,0.0575 -0.58131,0.13403 -0.85334,0.22952 -0.13471,0.047 -0.26628,0.0989 -0.3949,0.1555 -0.003,6.8e-4 -0.004,0 -0.006,0 -0.12761,0.0566 -0.25241,0.11706 -0.37404,0.18245 -0.005,0 -0.01,0.01 -0.0148,0.01 -0.11162,0.0604 -0.22054,0.12559 -0.32712,0.19394 -0.0131,0.01 -0.0264,0.0163 -0.0393,0.0249 -0.11205,0.0729 -0.22168,0.14994 -0.32807,0.23182 -0.0979,0.0757 -0.19278,0.15531 -0.28586,0.23795 -0.0241,0.0211 -0.0476,0.0431 -0.0711,0.0642 -0.0934,0.0863 -0.18516,0.17439 -0.27353,0.26786 -0.0677,0.0719 -0.13325,0.14467 -0.19676,0.21955 v 4.8e-4 c -0.0634,0.0748 -0.1252,0.151 -0.1844,0.22894 v 4.8e-4 c -0.17773,0.23402 -0.33679,0.48224 -0.47646,0.74483 -0.0465,0.0872 -0.091,0.1766 -0.13321,0.2674 v 4.7e-4 c -0.0423,0.0901 -0.0824,0.18264 -0.12041,0.2764 v 4.8e-4 c -0.0761,0.18762 -0.14368,0.38186 -0.20291,0.58214 -0.0593,0.20056 -0.11029,0.40736 -0.15265,0.62057 -0.0396,0.19903 -0.071,0.40439 -0.0958,0.61445 -0.003,0.0144 -0.004,0.0297 -0.006,0.0441 v 4.8e-4 c -0.0129,0.11274 -0.0233,0.22721 -0.0317,0.34322 -0.017,0.2322 -0.0256,0.47092 -0.0256,0.71587 0,0.17133 0.007,0.33805 0.016,0.50295 -0.72656,-0.35799 -1.46364,-0.70763 -2.19785,-1.04339 v 6.44556 h -2.03237 v -7.16095 c 0,-1.1472 -0.20884,-1.99816 -0.62627,-2.55393 -0.26676,-0.35511 -0.62428,-0.59575 -1.07047,-0.72393 0.0562,0.0192 0.11327,0.0374 0.1664,0.0604 0.15923,0.069 0.30484,0.15656 0.43662,0.26077 0.0659,0.0518 0.12824,0.10843 0.18727,0.16921 0.059,0.0604 0.11472,0.12588 0.16687,0.19539 0.0502,0.0671 0.0975,0.13873 0.14176,0.21428 0.0216,0.0374 0.0405,0.0777 0.0607,0.11658 0.0211,0.0403 0.0427,0.0796 0.0621,0.12281 0.0269,0.0594 0.0509,0.12358 0.0749,0.18771 0.01,0.023 0.0187,0.0451 0.027,0.069 0.0271,0.0777 0.0511,0.15992 0.0739,0.24419 0.004,0.0125 0.009,0.0249 0.0114,0.0384 0.0223,0.0853 0.0418,0.17554 0.0597,0.26738 0.003,0.0153 0.007,0.0307 0.01,0.046 0.0177,0.0963 0.0334,0.19577 0.0465,0.29864 0,0.01 0.003,0.0201 0.005,0.0297 0.0138,0.11208 0.0248,0.2277 0.0332,0.34754 0.009,0.12195 0.0143,0.24831 0.017,0.37831 3e-5,9.6e-4 -2e-5,0 0,0 -1.64136,-0.68894 -3.34522,-1.33291 -5.08214,-1.92147 -0.48683,0.65193 -0.73246,1.49963 -0.73246,2.54531 v 6.76519 h -2.03192 v -7.16105 c 0,-1.1542 -0.20882,-2.00525 -0.62625,-2.55383 -0.41744,-0.55577 -1.06182,-0.8339 -1.93332,-0.8339 -1.03259,0 -1.85313,0.34188 -2.46096,1.02583 -0.60784,0.67695 -0.91165,1.59636 -0.91165,2.75776 v 6.76519 h -2.03191 v -11.97008 h 1.91861 v 0.21428 c 0.0375,0.01 0.0754,0.0173 0.11282,0.0259 v -0.24035 h -0.11236 v -0.0374 h -1.21744 c -1.1407,-0.22702 -2.26908,-0.42433 -3.37403,-0.58597 -0.0596,-0.01 -0.12191,-0.0163 -0.18252,-0.0259 -2.29383,-10.72547 -7.36014,-17.62921 -12.94907,-17.64531 -5.66046,0.01 -10.78033,7.07553 -13.03628,18.0008 -3.94875,0.67801 -7.8586,1.66021 -11.85915,2.97059 -6.98981,2.28961 -14.47494,5.86314 -21.38204,10.20795 -1.84004,1.15747 -2.35013,1.44997 -2.53395,1.45352 -0.0168,4.8e-4 -0.0297,-0.0403 -0.0294,-0.0901 0,-0.13719 0.0816,-0.3392 0.27829,-0.69641 0.55378,-1.00589 3.02801,-5.17852 4.14252,-6.98609 1.47024,-2.38453 3.1995,-5.46211 6.32945,-11.26609 2.73578,-5.07297 5.56628,-10.44582 8.41068,-15.96228 4.43493,1.29197 12.05207,3.88022 14.33622,6.96854 -2.83472,-5.08821 -8.83609,-9.61902 -11.9037,-11.71506 0.57107,-1.12093 1.14174,-2.24532 1.71143,-3.37306 4.44456,1.29868 11.99655,3.87619 14.26892,6.9486 -2.82146,-5.06442 -8.78102,-9.57673 -11.86153,-11.68562 0.53013,-1.03398 0.98717,-1.9182 1.33453,-2.57761 0.12962,-0.24601 0.27092,-0.52145 0.41956,-0.81491 4.44907,1.30194 11.96879,3.87476 14.23526,6.93911 -2.84068,-5.09885 -8.86147,-9.63713 -11.92316,-11.72732 0.42901,-0.90887 0.91485,-1.94265 1.48483,-3.15975 6.65475,-14.21023 11.16746,-24.2634399 15.41713,-34.3443699 1.03182,-2.4477 1.83023,-4.1817401 1.97311,-4.2862401 0.025,-0.0182 0.045,-0.0278 0.0641,-0.0278 z m 17.95868,83.75881 v 1.61899 c 0.46138,-0.7339 1.01436,-1.27509 1.65881,-1.62416 0.64445,-0.34917 1.40985,-0.52394 2.29598,-0.52394 0.44672,0 0.85933,0.0556 1.23832,0.16595 -0.22381,-0.0729 -0.4585,-0.12885 -0.70686,-0.16212 -0.20642,-0.0278 -0.4214,-0.0412 -0.64476,-0.0412 -0.33231,0 -0.64747,0.024 -0.9458,0.0738 -0.0994,0.0163 -0.19731,0.0355 -0.29297,0.0575 -0.0955,0.0221 -0.18938,0.046 -0.28114,0.0738 -0.0918,0.0269 -0.18212,0.0575 -0.27022,0.0901 -0.17608,0.0652 -0.34487,0.1418 -0.50585,0.22895 -0.0782,0.0422 -0.15499,0.0882 -0.2304,0.13613 -0.0754,0.0479 -0.14957,0.0994 -0.22235,0.15311 -0.36515,-0.0853 -0.72921,-0.16672 -1.09276,-0.2461 z m 5.19311,-0.36316 c 0.14825,0.0489 0.29245,0.10326 0.42999,0.16931 v 0 c 0.17258,0.0824 0.33649,0.17919 0.49211,0.28963 0.23617,0.16567 0.44922,0.35942 0.63905,0.58118 0.0633,0.0738 0.12395,0.15071 0.18206,0.23095 v 4.8e-4 c 0.0581,0.0796 0.1135,0.16308 0.16638,0.24936 0.053,0.0863 0.10333,0.17602 0.15125,0.26883 0.0957,0.18522 0.18093,0.38281 0.25599,0.59306 0.0195,-0.0336 0.0404,-0.0642 0.0602,-0.0977 -0.30086,-0.7734 -0.74715,-1.37097 -1.34212,-1.7882 -0.31123,-0.22089 -0.65639,-0.38646 -1.03539,-0.49691 z m 2.3775,2.28511 c 0.0177,0.0451 0.0365,0.0892 0.0531,0.13556 0.50532,-0.88346 1.10937,-1.53568 1.81241,-1.95607 0.70304,-0.42031 1.53073,-0.63055 2.48279,-0.63055 0.48027,0 0.91949,0.0614 1.31746,0.18493 -0.42764,-0.14783 -0.90428,-0.22232 -1.43076,-0.22232 -0.238,0 -0.46833,0.0134 -0.69074,0.0393 -0.22246,0.0259 -0.43694,0.0652 -0.64382,0.11801 -0.2069,0.0527 -0.40602,0.11841 -0.59734,0.19721 -0.19131,0.0786 -0.3746,0.17085 -0.55041,0.27592 -0.0879,0.0527 -0.17454,0.10853 -0.25933,0.16835 -0.16957,0.11955 -0.33297,0.25349 -0.49019,0.40199 -0.3689,0.3484 -0.70229,0.77982 -1.00316,1.28756 z m 13.86356,-4.57587 c -0.80309,-1.41258 -1.60842,-2.83704 -2.42208,-4.2871 -1.57055,-2.79888 -2.5988,-4.60348 -3.39348,-5.95585 -1.15172,-1.96019 -2.00082,-3.51265 -3.77699,-6.90076 -0.17885,1.05392 -0.28477,2.1971 -0.2982,3.4489 0.047,7.91575 4.46324,12.12731 9.89075,13.69481 z m -11.81979,-21.44318 c -0.92697,-1.80766 -1.91718,-3.75875 -2.90043,-5.70888 -1.82176,0.89679 -2.26882,2.07122 -3.1811,2.81892 -0.0177,-2.57761 -0.006,-4.12498 -0.006,-4.12498 l -6.60586,1.13493 -0.0422,28.04242 7.25771,-1.39858 0.0119,-15.89929 c 0.003,-1.94783 2.29132,-4.1641 5.46569,-4.86454 z m 37.29885,-15.6944 0.0174,10.17564 c -1.40862,1.13387 -2.85063,2.66006 -4.56825,4.86645 1.85792,-1.56271 3.74898,-2.78709 5.40311,-4.06525 0.96699,-0.57274 2.86691,-1.34959 6.29818,-1.35496 7.21944,0.0307 11.7106,4.31884 11.66666,6.3494 l -0.0251,21.10044 -6.65612,1.17663 -0.11946,-19.89954 c 0.0116,-0.34322 -0.91391,-3.05937 -5.05371,-3.10242 -4.32937,-0.0882 -6.92258,2.68049 -6.93724,4.48297 l -0.0763,17.18925 -6.74997,1.21882 -0.0507,-36.52651 z m -22.65873,39.26239 c 1.65505,0 2.96222,0.52001 3.92159,1.56022 0.96667,1.03311 1.45022,2.44051 1.45022,4.22171 v 0.96189 h -3.07631 c 0.63689,1.08824 1.28321,2.183 1.93044,3.27737 -0.007,0 -0.0133,0.01 -0.0199,0.01 -0.14792,0.0662 -0.29663,0.12694 -0.44516,0.18484 -0.0525,0.0201 -0.10523,0.0393 -0.15787,0.0594 -0.11748,0.0431 -0.23484,0.0853 -0.35271,0.12377 -0.049,0.0163 -0.098,0.0326 -0.14697,0.0479 -0.16366,0.0508 -0.32769,0.0987 -0.4921,0.14036 -0.16495,0.0422 -0.33161,0.0777 -0.49921,0.11044 -0.0449,0.01 -0.0901,0.0163 -0.1351,0.024 -0.12562,0.0221 -0.2522,0.0412 -0.37927,0.0585 -0.052,0.01 -0.10382,0.0144 -0.15598,0.0201 -0.14544,0.0173 -0.29164,0.0307 -0.439,0.0403 -0.0244,0 -0.0485,0 -0.0731,0.01 -0.75629,-0.48214 -1.47188,-0.93274 -2.03331,-1.27289 -0.77103,-0.46719 -1.65265,-0.96246 -2.58518,-1.46215 0.20893,0.70476 0.5485,1.28277 1.01976,1.73231 0.75431,0.70543 1.80111,1.05814 3.14126,1.05814 0.7763,0 1.52736,-0.093 2.25237,-0.27822 0.73233,-0.18532 1.45737,-0.46296 2.17507,-0.83351 v 1.37298 c 0.0575,0.0979 0.11488,0.19568 0.17353,0.29442 1.3849,2.33113 1.67729,2.86791 1.67729,3.08152 0,0.11648 -0.2746,-0.01 -0.76706,-0.3532 -0.75811,-0.52844 -1.81364,-1.23243 -2.90328,-1.94706 -0.13659,0.0326 -0.27281,0.0662 -0.41055,0.0949 -0.76164,0.15675 -1.53417,0.23517 -2.31778,0.23517 -1.96267,0 -3.519,-0.55539 -4.66876,-1.66692 -1.14246,-1.11145 -1.7138,-2.6151 -1.7138,-4.51039 0,-1.95933 0.54175,-3.51265 1.62561,-4.65976 1.09119,-1.1542 2.55971,-1.73135 4.40518,-1.73135 z m 3.08009,12.23842 c 0.61844,-0.14946 1.22564,-0.3437 1.81953,-0.58875 v -0.48693 c -0.0375,-0.0642 -0.0752,-0.1277 -0.1133,-0.19194 v 0.64091 c -0.16164,0.0671 -0.32432,0.12885 -0.48785,0.18819 -0.0715,0.0259 -0.14374,0.0499 -0.21568,0.0748 -0.0889,0.0307 -0.17795,0.0604 -0.2674,0.0892 -0.0958,0.0307 -0.19189,0.0594 -0.28824,0.0872 -0.054,0.0153 -0.10801,0.0307 -0.16214,0.046 -0.11828,0.0326 -0.23678,0.0652 -0.35601,0.0939 0.0245,0.0163 0.0466,0.0307 0.0711,0.047 z m -6.76893,-4.12728 c -0.12224,-0.41235 -0.20035,-0.86764 -0.23278,-1.36732 h 6.21712 c -0.008,-0.0125 -0.015,-0.0249 -0.0223,-0.0374 h -6.30813 c 0.01,0.14658 0.0243,0.28761 0.0417,0.42672 0.007,0.0527 0.0143,0.10527 0.0223,0.15733 0.0131,0.0892 0.0286,0.17563 0.0451,0.26125 0.0102,0.0527 0.0199,0.10632 0.0313,0.1579 0.0241,0.10881 0.0511,0.21466 0.0806,0.3181 0.003,0.01 0.003,0.0115 0.005,0.0173 0.0416,0.022 0.0791,0.0441 0.12042,0.0661 z m 18.01841,-8.11114 c 0.13914,0 0.29334,0.0105 0.46177,0.0326 0.16844,0.0144 0.35483,0.0393 0.55988,0.0748 l 0.0114,2.02012 c -0.227,-0.12828 -0.47621,-0.22079 -0.74715,-0.27784 -0.26365,-0.0642 -0.55672,-0.0962 -0.87894,-0.0962 -1.14243,0 -2.02121,0.36364 -2.63639,1.09044 -0.60784,0.71962 -0.91165,1.75618 -0.91165,3.10999 v 6.30568 h -2.03239 v -11.97008 h 2.03239 v 1.85934 c 0.42476,-0.72671 0.97772,-1.26464 1.65883,-1.61371 0.68104,-0.35626 1.50824,-0.5343 2.48227,-0.5343 z m 7.34402,0 c 0.90809,0 1.68825,0.17477 2.34005,0.52394 0.65178,0.34907 1.18639,0.87617 1.60382,1.5815 v -1.81668 h 2.02101 v 10.48436 c 0,2.03766 -0.46517,3.55176 -1.39521,4.54212 -0.93009,0.99754 -2.35419,1.49617 -4.27292,1.49617 -0.71037,0 -1.38077,-0.0537 -2.01058,-0.1602 -0.62981,-0.0997 -1.24102,-0.25655 -1.83421,-0.47025 v -1.91293 c 0.59319,0.3135 1.17887,0.54484 1.75742,0.6945 0.57854,0.14965 1.16827,0.22472 1.76879,0.22472 1.32552,0 2.31766,-0.33862 2.97677,-1.01548 0.6591,-0.66976 0.98893,-1.68514 0.98893,-3.04594 v -0.97281 c -0.41743,0.70533 -0.95204,1.23281 -1.60382,1.58198 -0.6518,0.34907 -1.43196,0.52384 -2.34005,0.52384 -1.50862,0 -2.72436,-0.5596 -3.64712,-1.67823 -0.92274,-1.11864 -1.38386,-2.60062 -1.38386,-4.44596 0,-1.85254 0.46112,-3.33817 1.38386,-4.4568 0.92276,-1.11863 2.1385,-1.67785 3.64712,-1.67785 z m 14.45569,0 c 1.6551,0 2.96223,0.52001 3.92159,1.56022 0.96667,1.03311 1.45021,2.44051 1.45021,4.22171 v 0.96189 h -9.29341 c 0.0879,1.3538 0.50555,2.38711 1.25253,3.09953 0.75431,0.70543 1.80154,1.05824 3.14173,1.05824 0.77629,0 1.52688,-0.093 2.25189,-0.27832 0.73235,-0.18522 1.45738,-0.46297 2.17508,-0.83341 v 1.85981 c -0.72504,0.29922 -1.46847,0.52682 -2.23008,0.68357 -0.76164,0.15675 -1.53417,0.23517 -2.31778,0.23517 -1.96266,0 -3.51899,-0.55538 -4.66876,-1.66682 -1.14245,-1.11154 -1.71379,-2.6152 -1.71379,-4.51049 0,-1.95933 0.54223,-3.51255 1.62609,-4.65975 1.09119,-1.1542 2.55922,-1.73135 4.4047,-1.73135 z m -47.14647,0.18493 c 0.41786,0.14458 0.7888,0.35943 1.11219,0.64522 0.15105,0.13346 0.29196,0.28225 0.42242,0.44657 0.087,0.10872 0.16855,0.223 0.24463,0.34322 0.22838,0.36077 0.40759,0.77379 0.53808,1.23886 0.087,0.30995 0.15185,0.64301 0.19532,0.99927 0.0434,0.35636 0.0654,0.73572 0.0654,1.13829 v 0.76429 c 0.0377,0.0173 0.0756,0.0355 0.1133,0.0527 v -0.77944 c 0,-1.61026 -0.34821,-2.84989 -1.04393,-3.71916 -0.43482,-0.54771 -0.98373,-0.9243 -1.64743,-1.12975 z m 33.18523,1.46109 c -1.08383,0 -1.92991,0.39202 -2.53776,1.17577 -0.60051,0.78376 -0.90075,1.88782 -0.90075,3.31286 0,1.41784 0.30024,2.51874 0.90075,3.30249 0.60785,0.78376 1.45393,1.17568 2.53776,1.17568 1.0912,0 1.93677,-0.39192 2.53728,-1.17568 0.60782,-0.78375 0.91214,-1.88465 0.91214,-3.30249 0,-1.42504 -0.30432,-2.5291 -0.91214,-3.31286 -0.60051,-0.78375 -1.44608,-1.17577 -2.53728,-1.17577 z m -22.82276,0.0144 c -0.4063,0.0412 -0.77835,0.13058 -1.11835,0.26413 -0.0332,0.0134 -0.067,0.0259 -0.0996,0.0403 -0.0572,0.024 -0.1126,0.0518 -0.16782,0.0786 -0.0421,0.0211 -0.0838,0.0422 -0.12469,0.0642 -0.0489,0.0268 -0.0973,0.0537 -0.14459,0.0834 -0.0469,0.0288 -0.0922,0.0594 -0.13748,0.0901 -0.0397,0.0268 -0.0801,0.0537 -0.11851,0.0824 -0.0822,0.0614 -0.162,0.12617 -0.23848,0.19577 -0.16843,0.15493 -0.31906,0.32539 -0.45179,0.51196 v 5.7e-4 c -0.19902,0.27976 -0.3582,0.59489 -0.47691,0.94578 v 4.8e-4 c -0.01,0.0259 -0.0153,0.0547 -0.0238,0.0815 -0.10425,0.32951 -0.17685,0.68769 -0.21239,1.07808 h 0.11804 c 0.1078,-1.10723 0.49357,-1.96815 1.15962,-2.58097 0.54486,-0.49585 1.23525,-0.78969 2.06605,-0.88892 -0.01,-0.0163 -0.0184,-0.0316 -0.0275,-0.047 0,1e-4 0,0 -0.003,0 z m 0.0294,0.047 c 0.66559,1.15631 1.33516,2.31147 2.00491,3.46174 l -5.23056,0.01 c 0,0.0125 -0.004,0.0249 -0.005,0.0374 l 7.20604,-0.0106 c -0.0148,-1.07587 -0.32567,-1.9344 -0.93347,-2.57569 -0.60054,-0.64119 -1.39909,-0.96188 -2.39506,-0.96188 -0.22556,0 -0.43944,0.0163 -0.64711,0.0412 z m 36.77689,-0.0412 c -1.12782,0 -2.03257,0.30986 -2.71365,0.92967 -0.67375,0.61991 -1.06182,1.49263 -1.16435,2.61836 l 7.20604,-0.0105 c -0.0148,-1.07587 -0.32566,-1.9344 -0.93346,-2.57569 -0.60054,-0.64119 -1.39861,-0.96188 -2.39458,-0.96188 z m -49.16037,0.01 c -0.13091,0 -0.25856,0.01 -0.38259,0.0153 -0.2481,0.0211 -0.48241,0.0633 -0.70305,0.12713 -0.55153,0.15857 -1.01723,0.44925 -1.39712,0.87224 -0.0635,0.0709 -0.12185,0.14582 -0.17872,0.22194 0.0376,0.0125 0.0748,0.0259 0.11236,0.0393 0.0571,-0.0767 0.11577,-0.15176 0.17966,-0.2229 0.60782,-0.67686 1.43507,-1.01548 2.48231,-1.01548 0.30928,0 0.58896,0.0374 0.841,0.11006 -0.0279,-0.01 -0.0539,-0.0221 -0.0824,-0.0307 v 0 c -0.0209,-0.01 -0.0438,-0.01 -0.0649,-0.0153 -0.15494,-0.0422 -0.31878,-0.0738 -0.49493,-0.0882 -0.10022,-0.01 -0.20392,-0.0125 -0.31101,-0.0125 z"
       id="path5997"
       inkscape:connector-curvature="0"
       sodipodi:nodetypes="ccsccccccccccccccccccccccccccccccccccccccccccccccsccccscccccccccccccccccccccsccscscsccccccccccccccccccccccccccccccccccccccsccsccccccccccccccccccccccccccscccccccccccccccccccccccccscccccccccccscsccccccccccccsccccccccccscccscscscccccccccccccccccccsccccsccccscsccccccssccccscsccccscsccscscsscsccccccccscscsccccccccccccscscscccsccccccscccccccccccccccccccscsccccssccccccscccccccccccccccccccc" />
  </g>
</svg>
