<?xml version="1.0" encoding="UTF-8" standalone="no"?>
<svg
   xmlns:dc="http://purl.org/dc/elements/1.1/"
   xmlns:cc="http://creativecommons.org/ns#"
   xmlns:rdf="http://www.w3.org/1999/02/22-rdf-syntax-ns#"
   xmlns:svg="http://www.w3.org/2000/svg"
   xmlns="http://www.w3.org/2000/svg"
   xmlns:sodipodi="http://sodipodi.sourceforge.net/DTD/sodipodi-0.dtd"
   xmlns:inkscape="http://www.inkscape.org/namespaces/inkscape"
   version="1"
   width="807.96985"
   height="127.00234"
   id="svg8"
   sodipodi:docname="archmerged-text.svg"
   inkscape:version="0.92.2 5c3e80d, 2017-08-06"
   inkscape:export-filename="/home/erik/Insync/ArchMerge/ArchMerged/archmerged-text.png"
   inkscape:export-xdpi="96"
   inkscape:export-ydpi="96">
  <metadata
     id="metadata14">
    <rdf:RDF>
      <cc:Work
         rdf:about="">
        <dc:format>image/svg+xml</dc:format>
        <dc:type
           rdf:resource="http://purl.org/dc/dcmitype/StillImage" />
        <dc:title></dc:title>
      </cc:Work>
    </rdf:RDF>
  </metadata>
  <defs
     id="defs12" />
  <sodipodi:namedview
     pagecolor="#474747"
     bordercolor="#666666"
     borderopacity="1"
     objecttolerance="10"
     gridtolerance="10"
     guidetolerance="10"
     inkscape:pageopacity="0"
     inkscape:pageshadow="2"
     inkscape:window-width="1920"
     inkscape:window-height="1020"
     id="namedview10"
     showgrid="false"
     showguides="true"
     inkscape:guide-bbox="true"
     inkscape:zoom="0.90133333"
     inkscape:cx="586.27852"
     inkscape:cy="182.64958"
     inkscape:window-x="1920"
     inkscape:window-y="30"
     inkscape:window-maximized="1"
     inkscape:current-layer="svg8"
     fit-margin-top="0"
     fit-margin-left="0"
     fit-margin-right="0"
     fit-margin-bottom="0">
    <sodipodi:guide
       position="728.08818,18.57371"
       orientation="0,1"
       id="guide831"
       inkscape:locked="false" />
  </sodipodi:namedview>
  <path
     d="m 145.39057,31.198943 c -8.89,-0.014 -16.267,1.809 -19.12,2.803 l -2.937,15.857001 c -0.007,0.058 14.617,-3.900001 21.059,-3.667001 10.665,0.383 11.646,4.076002 11.46,9.060001 0.182,0.292001 -2.752,-4.503 -11.979,-4.664 -11.64,-0.2 -28.069,4.122 -28.046,21.692 -0.314,19.764999 14.764,25.578999 25.032,25.685999 9.232,-0.168 13.563,-3.496 15.934,-5.28 3.115,-3.257 6.679,-6.532 10.078,-10.462 -3.216,5.844 -6.005,9.884 -8.907,12.977 v 2.611 l 14.033,-2.361 0.096,-38.143999 c -0.143,-5.399 3.096,-26.057001 -26.703,-26.108001 z m -2.016,33.210001 c 5.817,0.08 12.488,2.948 12.497,9.849 0.03,6.276999 -7.863,9.650999 -12.996,9.597999 -5.135,-0.053 -11.949,-4.036 -11.979,-10.154999 0.099,-5.47 6.426,-9.432 12.478,-9.290999 z m 37.972,-29.685001 -0.095,63.166 16.348,-3.15 0.027,-35.813999 c 0.004,-5.333 7.62,-11.564001 17.178,-11.464001 2.028,-3.67 5.84,-13.05 6.77,-15.183 -21.351,-0.051 -21.623,6.137 -25.336,9.18 -0.04,-5.806 -0.013,-9.292 -0.013,-9.292 z m 92.002,8.292 c -0.158,-0.074 -8.526,-9.787999 -25.35,-9.864 -15.758,-0.262 -33.433,5.847 -33.716,32.270001 0.138,23.231999 16.979,32.310999 33.805,32.487999 18.007,0.187 25.172,-11.26 25.602,-11.543 -2.149,-1.863 -10.196,-9.837001 -10.196,-9.837001 0,0 -5.027,7.157001 -14.779,7.248001 -9.755,0.093 -18.234,-7.540001 -18.354,-18.188999 -0.125,-10.65 7.795,-16.419001 18.427,-16.885001 9.205,-0.002 14.516,5.943001 14.516,5.943001 z m 20.606,-30.399 -15.434,3.628 0.115,82.277 15.204,-2.745 0.172,-38.719998 c 0.033,-4.06 5.874,-10.295001 15.626,-10.097001 9.325,0.097 11.41,6.215001 11.384,6.988 l 0.269,44.823999 14.993,-2.65 0.057,-47.529999 c 0.099,-4.574 -10.018,-14.233 -26.28,-14.302 -7.729,0.012 -12.009,1.762 -14.187,3.052 -3.726,2.879 -7.985,5.637 -12.17,9.157 3.869,-4.97 7.117,-8.407 10.29,-10.961 l -0.04,-22.921 z"
     id="path2"
     inkscape:connector-curvature="0"
     style="fill:#ffffff;fill-rule:evenodd" />
  <text
     xml:space="preserve"
     style="font-style:normal;font-variant:normal;font-weight:normal;font-stretch:normal;font-size:132.63606262px;line-height:1.25;font-family:'Final Frontier';-inkscape-font-specification:'Final Frontier';letter-spacing:0px;word-spacing:0px;fill:#6790eb;fill-opacity:1;stroke:none;stroke-width:0.69081277"
     x="338.98206"
     y="98.765366"
     id="text823"><tspan
       sodipodi:role="line"
       id="tspan821"
       x="338.98206"
       y="98.765366"
       style="fill:#6790eb;fill-opacity:1;stroke-width:0.69081277">merged</tspan></text>
  <path
     d="M 785.64084,108.42863 V 95.766633 h -4.73 v -1.695 h 11.38 v 1.695 h -4.75 v 12.661997 h -1.9 m 8.629,0 V 94.071633 h 2.859 l 3.398,10.165997 c 0.314,0.947 0.542,1.655 0.686,2.125 0.163,-0.522 0.418,-1.29 0.764,-2.301 l 3.437,-9.989997 h 2.556 v 14.356997 h -1.831 V 96.413633 l -4.172,12.015997 h -1.714 l -4.152,-12.221997 v 12.221997"
     font-weight="400"
     font-size="8.441"
     id="path6"
     inkscape:connector-curvature="0"
     style="font-weight:400;font-size:8.44099998px;font-family:'DejaVu Sans Mono';fill:#808080"
     sodipodi:nodetypes="cccccccccccccccccccccccc" />
  <path
     inkscape:connector-curvature="0"
     style="fill:#6790eb;fill-opacity:1;stroke:none;stroke-width:1.53524578;stroke-miterlimit:4;stroke-dasharray:none;stroke-opacity:1"
     d="m 55.454461,9.1855099e-5 v 0 c -0.0217,0 -0.0443,0.0106300049 -0.0728,0.0315200049 -0.16268,0.118941 -1.07127,2.09291854 -2.24577,4.87904054 -4.83734,11.4749786 -9.97436,22.9183336 -17.54938,39.0936436 -0.64879,1.385377 -1.20163,2.561831 -1.68994,3.596354 3.48507,2.379214 10.33818,7.545402 13.57168,13.349397 -2.57989,-3.488148 -11.13945,-6.416762 -16.20375,-7.89871 -0.16922,0.33404 -0.32984,0.64741 -0.47737,0.927439 -0.39542,0.750592 -0.91585,1.756851 -1.5193,2.933842 3.5065,2.400518 10.2905,7.537344 13.50212,13.302072 -2.5866,-3.497218 -11.18299,-6.431577 -16.24216,-7.909826 -0.64847,1.283676 -1.2982,2.563745 -1.94824,3.839681 3.49182,2.385871 10.32344,7.542923 13.55017,13.334787 -2.60004,-3.5154 -11.27093,-6.461478 -16.31916,-7.932159 -3.23775,6.279269 -6.45968,12.39523 -9.57375,18.16972 -3.5628099,6.6066 -5.5310299,10.11009 -7.2045799,12.824347 -1.26864,2.05753 -4.08498002,6.80706 -4.71539002,7.95209 -0.22388,0.40665 -0.31572,0.63665 -0.316830002525,0.79283 -4.79999995e-4,0.0568 0.01470000253,0.1032 0.03370000252,0.10272 0.20925,-0.004 0.78981,-0.33712 2.88431002,-1.65465 7.8622499,-4.94568 16.3823299,-9.01326 24.3386999,-11.619487 4.55377,-1.49165 9.0042,-2.60941 13.499,-3.38115 a 16.188258,34.067826 0 0 1 14.83909,-20.490394 16.188258,34.067826 0 0 1 14.73987,20.085344 c 0.069,0.01 0.13992,0.0199 0.20776,0.0298 7.1133,1.04075 15.04569,3.31836 21.89334,6.286327 3.42989,1.4866 7.15477,3.38155 9.813599,4.99243 2.12191,1.28558 6.0068,3.81382 8.06696,5.24982 0.56058,0.39075 0.87331,0.53476 0.87331,0.4022 0,-0.24314 -0.33261,-0.85438 -1.909,-3.50787 -4.02416,-6.77377 -7.80539,-13.323497 -11.742339,-20.339697 -1.78773,-3.18598 -2.95828,-5.24041 -3.86285,-6.779861 -1.38768,-2.36164 -2.34785,-4.12096 -4.62836,-8.480644 -3.2612,-6.234482 -8.85156,-17.34504 -11.13606,-22.132356 -0.68948,-1.444843 -2.54466,-5.194222 -3.15005,-6.366266 -1.51081,-2.926073 -4.17353,-8.668572 -6.05569,-13.146159 -5.89355,-13.319132 -7.63172,-17.347317 -10.52187,-24.3846526 -1.73561,-4.226109 -2.50361,-5.99238554 -2.66139,-6.12111254 -0.0251,-0.02047 -0.0459,-0.0306600049 -0.0676,-0.030500004891 z"
     id="path4487-3-3" />
</svg>
