<?xml version="1.0" encoding="UTF-8" standalone="no"?>
<svg
   xmlns:dc="http://purl.org/dc/elements/1.1/"
   xmlns:cc="http://creativecommons.org/ns#"
   xmlns:rdf="http://www.w3.org/1999/02/22-rdf-syntax-ns#"
   xmlns:svg="http://www.w3.org/2000/svg"
   xmlns="http://www.w3.org/2000/svg"
   xmlns:sodipodi="http://sodipodi.sourceforge.net/DTD/sodipodi-0.dtd"
   xmlns:inkscape="http://www.inkscape.org/namespaces/inkscape"
   version="1"
   width="725.26996"
   height="282.58456"
   id="svg8"
   sodipodi:docname="archmerge-text-cp-erik.svg"
   inkscape:version="0.92.2 5c3e80d, 2017-08-06">
  <metadata
     id="metadata14">
    <rdf:RDF>
      <cc:Work
         rdf:about="">
        <dc:format>image/svg+xml</dc:format>
        <dc:type
           rdf:resource="http://purl.org/dc/dcmitype/StillImage" />
        <dc:title></dc:title>
      </cc:Work>
    </rdf:RDF>
  </metadata>
  <defs
     id="defs12" />
  <sodipodi:namedview
     pagecolor="#474747"
     bordercolor="#666666"
     borderopacity="1"
     objecttolerance="10"
     gridtolerance="10"
     guidetolerance="10"
     inkscape:pageopacity="0"
     inkscape:pageshadow="2"
     inkscape:window-width="1920"
     inkscape:window-height="1020"
     id="namedview10"
     showgrid="false"
     showguides="true"
     inkscape:guide-bbox="true"
     inkscape:zoom="0.98133333"
     inkscape:cx="-16.857312"
     inkscape:cy="85.476209"
     inkscape:window-x="0"
     inkscape:window-y="30"
     inkscape:window-maximized="1"
     inkscape:current-layer="svg8"
     fit-margin-top="0"
     fit-margin-left="0"
     fit-margin-right="0"
     fit-margin-bottom="0">
    <sodipodi:guide
       position="307.91812,42.449256"
       orientation="0,1"
       id="guide831"
       inkscape:locked="false" />
  </sodipodi:namedview>
  <path
     inkscape:connector-curvature="0"
     style="fill:#c01723;fill-opacity:1;stroke:none;stroke-width:3.89479351;stroke-miterlimit:4;stroke-dasharray:none;stroke-opacity:1"
     d="m 140.68345,2.1456287e-4 v 0 c -0.055,0 -0.11238,0.0269999971 -0.18469,0.0799999971 -0.4127,0.30175 -2.71772,5.30956004 -5.69733,12.37773044 -12.27194,29.111093 -25.30414,58.141953 -44.521346,99.177395 -1.64593,3.51459 -3.04844,6.49916 -4.287243,9.12366 8.841343,6.03587 26.227119,19.14207 34.430249,33.86634 -6.54497,-8.84915 -28.259876,-16.27881 -41.107596,-20.03839 -0.429297,0.84743 -0.836777,1.64243 -1.211049,2.35284 -1.003148,1.90419 -2.323437,4.45699 -3.85434,7.44292 8.895705,6.08992 26.106155,19.12162 34.253775,33.74627 -6.56199,-8.87216 -28.370331,-16.31639 -41.205034,-20.06658 -1.645115,3.25658 -3.293427,6.50401 -4.942526,9.74095 8.858463,6.05276 26.189724,19.13578 34.375684,33.82926 -6.59609,-8.91828 -28.593438,-16.39224 -41.400386,-20.12323 -8.213908,15.92999 -16.387683,31.44568 -24.287825,46.09509 -9.038559,16.76041 -14.031773,25.64848 -18.277433,32.53433 -3.2184357,5.21979 -10.3632617,17.26896 -11.96255968,20.17381 -0.567966,1.03164 -0.800957,1.61513 -0.803773004646,2.01134 -0.0011999954,0.1441 0.03729000465,0.26181 0.08549000465,0.2606 0.530851,-0.0102 2.00368398,-0.85525 7.31725998,-4.19772 19.9458887,-12.54678 41.5606377,-22.8659 61.7453007,-29.4777 11.552544,-3.78419 22.842916,-6.61986 34.245852,-8.5777 a 41.068293,86.427302 0 0 1 37.64557,-51.98246 41.068293,86.427302 0 0 1 37.39385,50.95488 c 0.17505,0.0254 0.35496,0.0505 0.52707,0.0756 18.04586,2.6403 38.16969,8.41841 55.54163,15.94791 8.70135,3.77138 18.15106,8.57872 24.8963,12.66539 5.38311,3.26141 15.23876,9.67535 20.46522,13.31836 1.42215,0.99131 2.21552,1.35665 2.21552,1.02035 0,-0.61682 -0.84381,-2.16749 -4.84298,-8.89918 -10.20897,-17.1845 -19.80164,-33.80063 -29.78936,-51.60016 -4.53533,-8.08257 -7.50492,-13.29449 -9.79974,-17.19996 -3.52043,-5.99128 -5.9563,-10.45454 -11.74177,-21.51469 -8.2734,-15.81637 -22.45569,-44.00295 -28.25128,-56.14799 -1.74916,-3.66544 -6.4556,-13.17731 -7.99142,-16.15069 -3.83281,-7.42321 -10.58791,-21.991472 -15.3628,-33.350742 -14.95145,-33.78955 -19.36105,-44.00873 -26.69312,-61.861883 -4.4031,-10.7213004 -6.35146,-15.20219044 -6.75173,-15.52876044 -0.0637,-0.0519 -0.11645,-0.0777999971 -0.1715,-0.07739999713 z"
     id="path4487-3-3" />
  <path
     d="m 178.52835,176.13785 -0.095,63.166 16.348,-3.15 0.027,-35.81399 c 0.004,-5.333 7.62,-11.56401 17.178,-11.46401 2.028,-3.67 5.84,-13.05 6.77,-15.183 -21.351,-0.051 -21.623,6.137 -25.336,9.18 -0.04,-5.806 -0.013,-9.292 -0.013,-9.292 z m 92.002,8.292 c -0.158,-0.074 -8.526,-9.78799 -25.35,-9.864 -15.758,-0.262 -33.433,5.847 -33.716,32.27001 0.138,23.23199 16.979,32.31099 33.805,32.48799 18.007,0.187 25.172,-11.26 25.602,-11.543 -2.149,-1.863 -10.196,-9.837 -10.196,-9.837 0,0 -5.027,7.157 -14.779,7.248 -9.755,0.093 -18.234,-7.54 -18.354,-18.18899 -0.125,-10.65 7.795,-16.41901 18.427,-16.88501 9.205,-0.002 14.516,5.94301 14.516,5.94301 z m 20.606,-30.399 -15.434,3.628 0.115,82.277 15.204,-2.745 0.172,-38.71999 c 0.033,-4.06 5.874,-10.295 15.626,-10.097 9.325,0.097 11.41,6.215 11.384,6.988 l 0.269,44.82399 14.993,-2.65 0.057,-47.52999 c 0.099,-4.574 -10.018,-14.233 -26.28,-14.302 -7.729,0.012 -12.009,1.762 -14.187,3.052 -3.726,2.879 -7.985,5.637 -12.17,9.157 3.869,-4.97 7.117,-8.407 10.29,-10.961 l -0.04,-22.921 z"
     id="path2"
     inkscape:connector-curvature="0"
     style="fill:#ffffff;fill-rule:evenodd"
     sodipodi:nodetypes="cccccccccccccccccccccccccccccccccccc" />
  <text
     xml:space="preserve"
     style="font-style:normal;font-variant:normal;font-weight:normal;font-stretch:normal;font-size:132.63606262px;line-height:1.25;font-family:'Final Frontier';-inkscape-font-specification:'Final Frontier';letter-spacing:0px;word-spacing:0px;fill:#ffffff;fill-opacity:1;stroke:none;stroke-width:0.69081277;"
     x="336.16385"
     y="240.17928"
     id="text823"><tspan
       sodipodi:role="line"
       id="tspan821"
       x="336.16385"
       y="240.17928"
       style="fill:#ffffff;fill-opacity:1;stroke-width:0.69081277;">merge</tspan></text>
  <path
     d="m 702.94096,249.84254 v -12.662 h -4.73 v -1.695 h 11.38 v 1.695 h -4.75 v 12.662 h -1.9 m 8.629,0 v -14.357 h 2.859 l 3.398,10.166 c 0.314,0.947 0.542,1.655 0.686,2.125 0.163,-0.522 0.418,-1.29 0.764,-2.301 l 3.437,-9.99 h 2.556 v 14.357 h -1.831 v -12.015 l -4.172,12.016 h -1.714 l -4.152,-12.222 v 12.222"
     font-weight="400"
     font-size="8.441"
     id="path6"
     inkscape:connector-curvature="0"
     style="font-weight:400;font-size:8.44099998px;font-family:'DejaVu Sans Mono';fill:#808080"
     sodipodi:nodetypes="cccccccccccccccccccccccc" />
</svg>
